<svg xmlns="http://www.w3.org/2000/svg" width="173" height="219" fill="none"><g clip-path="url(#a)"><path fill="#F2F2F2" d="M104.114 35.983h-44.19a3.804 3.804 0 0 0-3.8 3.797v98.163l-.506.154-10.84 3.318a2.026 2.026 0 0 1-2.53-1.344L10.002 34.796a2.025 2.025 0 0 1 1.344-2.528l16.706-5.113 48.43-14.816 16.705-5.112a2.024 2.024 0 0 1 2.53 1.341l8.243 26.91z"/><path fill="#3F3D56" d="m113.757 35.478-9.934-32.432a4.31 4.31 0 0 0-3.705-3.024 4.3 4.3 0 0 0-1.671.17L74.96 7.376 26.533 22.195 3.046 29.383a4.31 4.31 0 0 0-2.857 5.373l33.953 110.838a4.31 4.31 0 0 0 5.376 2.855l16.1-4.925.507-.157v-.529l-.507.154-16.25 4.974a3.806 3.806 0 0 1-4.742-2.519L.676 34.607a3.79 3.79 0 0 1 2.519-4.74l23.487-7.188L75.109 7.862 98.596.675a3.805 3.805 0 0 1 4.743 2.518l9.889 32.285.157.506h.527z"/><path fill="#195BFF" d="M31.066 32.351a2.285 2.285 0 0 1-2.18-1.611L25.624 20.09a2.28 2.28 0 0 1 1.512-2.844L71.689 3.614a2.28 2.28 0 0 1 2.846 1.511l3.262 10.648a2.28 2.28 0 0 1-1.512 2.845L31.732 32.251q-.326.1-.666.1"/><path fill="#6C63FF" d="M48.152 11.378a5.063 5.063 0 0 0 5.065-5.062 5.063 5.063 0 0 0-5.065-5.062 5.063 5.063 0 0 0-5.064 5.062 5.063 5.063 0 0 0 5.064 5.062"/><path fill="#fff" d="M48.152 9.521a3.206 3.206 0 1 0-3.207-3.205 3.206 3.206 0 0 0 3.207 3.205"/><path fill="#E6E6E6" d="M152.744 147.806H67.152A2.154 2.154 0 0 1 65 145.655V43.151A2.153 2.153 0 0 1 67.152 41h85.592a2.157 2.157 0 0 1 2.152 2.151v102.504a2.156 2.156 0 0 1-2.152 2.151"/><path fill="#3F3D56" d="M113.228 35.477H59.923a4.31 4.31 0 0 0-4.305 4.303v103.212l.507-.155V39.78a3.8 3.8 0 0 1 3.798-3.797h53.462zm46.467 0H59.923a4.31 4.31 0 0 0-4.305 4.303v115.917A4.31 4.31 0 0 0 59.923 160h99.772a4.31 4.31 0 0 0 4.305-4.303V39.78a4.31 4.31 0 0 0-4.305-4.303m3.799 120.22a3.8 3.8 0 0 1-3.799 3.797H59.923a3.807 3.807 0 0 1-3.798-3.797V39.78a3.8 3.8 0 0 1 3.798-3.797h99.772a3.805 3.805 0 0 1 3.799 3.797z"/><path fill="#7B7B7B" d="M133.106 46.613H86.512a2.283 2.283 0 0 1-2.279-2.278V33.2a2.28 2.28 0 0 1 2.28-2.278h46.593a2.283 2.283 0 0 1 2.279 2.278v11.136a2.28 2.28 0 0 1-2.279 2.278"/><path fill="#6C63FF" d="M109.809 31.68a5.064 5.064 0 0 0 5.065-5.061 5.064 5.064 0 0 0-5.065-5.062 5.063 5.063 0 1 0 0 10.124"/><path fill="#fff" d="M109.809 29.702a3.084 3.084 0 1 0-3.085-3.083 3.084 3.084 0 0 0 3.085 3.083"/></g><path fill="#6A7885" d="M14.631 213.461H13.1l-6.227-9.594h-.062l.054.875q.032.484.047 1.039.024.547.024 1.117v6.563H5.7v-11.422h1.524l6.203 9.563h.055q-.016-.274-.04-.774l-.046-1.086q-.015-.585-.016-1.086v-6.617h1.25zm10.305-4.297q0 1.055-.274 1.883a3.85 3.85 0 0 1-.789 1.398q-.516.571-1.25.875-.727.297-1.648.297a4.1 4.1 0 0 1-1.578-.297 3.55 3.55 0 0 1-1.235-.875 4 4 0 0 1-.804-1.398q-.282-.828-.282-1.883 0-1.406.477-2.391.476-.992 1.36-1.507.89-.524 2.116-.524 1.173 0 2.047.524.883.524 1.368 1.515.492.985.492 2.383m-6.516 0q0 1.032.274 1.789.273.758.843 1.172t1.47.414q.89 0 1.46-.414.579-.414.852-1.172.273-.757.273-1.789 0-1.023-.273-1.766-.274-.75-.844-1.156t-1.477-.406q-1.336 0-1.96.883-.618.882-.618 2.445m15.68 3.391q.32 0 .656-.055a3 3 0 0 0 .547-.133v1.008a2.7 2.7 0 0 1-.633.172q-.399.07-.781.07-.68 0-1.235-.234a1.9 1.9 0 0 1-.89-.813q-.328-.57-.328-1.578v-5.078h-1.219v-.633l1.227-.508.515-1.859h.781v1.984h2.508v1.016H32.74v5.039q0 .806.368 1.203.375.399.992.399m6.828-7.813q.258 0 .539.031.282.023.5.071l-.164 1.203a3.998 3.998 0 0 0-.953-.117q-.516 0-.977.211a2.3 2.3 0 0 0-.797.593q-.343.383-.539.93-.195.538-.195 1.203v4.594h-1.305v-8.563h1.078l.141 1.579h.055q.265-.477.64-.868.375-.398.868-.632a2.6 2.6 0 0 1 1.109-.235m5.86.016q1.53 0 2.273.687.742.688.742 2.196v5.82h-.945l-.25-1.266h-.063q-.36.47-.75.789a2.8 2.8 0 0 1-.906.477q-.508.156-1.25.156-.781 0-1.39-.273a2.17 2.17 0 0 1-.954-.828q-.344-.555-.344-1.407 0-1.281 1.016-1.968 1.015-.689 3.094-.75l1.476-.063v-.523q0-1.11-.476-1.555-.477-.445-1.344-.445-.672 0-1.281.195a9 9 0 0 0-1.157.461l-.398-.984a7 7 0 0 1 1.328-.508 5.8 5.8 0 0 1 1.578-.211m1.734 4.484-1.305.055q-1.602.063-2.258.523-.656.461-.656 1.305 0 .735.445 1.086t1.18.351q1.14 0 1.867-.632.727-.633.727-1.899zm8.008-4.5q1.523 0 2.304.75.781.743.781 2.391v5.578h-1.28v-5.492q0-1.071-.493-1.602-.484-.531-1.492-.531-1.422 0-2 .805-.578.804-.578 2.336v4.484h-1.297v-8.563h1.047l.195 1.235h.07q.274-.453.696-.758.42-.312.945-.469a3.7 3.7 0 0 1 1.102-.164m11.296 6.375q0 .82-.414 1.383-.405.554-1.172.836-.757.28-1.812.281a7.6 7.6 0 0 1-1.555-.14 4.5 4.5 0 0 1-1.148-.399v-1.195q.523.258 1.25.469.726.21 1.484.21 1.11 0 1.61-.359t.5-.976a1 1 0 0 0-.204-.618q-.195-.273-.664-.523a10 10 0 0 0-1.296-.563 15 15 0 0 1-1.422-.617q-.594-.312-.922-.758-.32-.444-.32-1.156 0-1.085.874-1.664.883-.585 2.313-.586.773 0 1.445.156a6.7 6.7 0 0 1 1.266.407l-.438 1.039a8 8 0 0 0-1.132-.383 4.9 4.9 0 0 0-1.227-.156q-.898 0-1.383.297-.477.296-.476.812 0 .399.218.656.227.258.72.485.491.226 1.296.531.805.297 1.39.617.586.312.9.766.32.445.32 1.148m3.383-6.219v8.563h-1.297v-8.563zm-.633-3.203q.32 0 .547.211.235.203.235.641 0 .43-.235.641a.78.78 0 0 1-.547.21.8.8 0 0 1-.562-.21q-.219-.212-.219-.641 0-.438.219-.641a.8.8 0 0 1 .562-.211m6.149 10.86q.32 0 .656-.055a3 3 0 0 0 .547-.133v1.008a2.7 2.7 0 0 1-.633.172q-.399.07-.781.07-.68 0-1.234-.234a1.9 1.9 0 0 1-.891-.813q-.328-.57-.328-1.578v-5.078h-1.219v-.633l1.227-.508.515-1.859h.781v1.984h2.508v1.016h-2.508v5.039q0 .806.368 1.203.374.399.992.399m10.984-7.813q.258 0 .54.031.28.023.5.071l-.165 1.203a4.001 4.001 0 0 0-.953-.117q-.516 0-.977.211a2.3 2.3 0 0 0-.796.593q-.345.383-.54.93-.195.538-.195 1.203v4.594H83.82v-8.563h1.078l.14 1.579h.055q.265-.477.64-.868.376-.398.868-.632a2.6 2.6 0 0 1 1.11-.235m10.04 4.422q0 1.055-.274 1.883a3.85 3.85 0 0 1-.79 1.398q-.515.571-1.25.875-.726.297-1.648.297a4.1 4.1 0 0 1-1.578-.297 3.55 3.55 0 0 1-1.234-.875 4 4 0 0 1-.805-1.398q-.28-.828-.281-1.883 0-1.406.477-2.391.475-.992 1.359-1.507.891-.524 2.117-.524 1.172 0 2.047.524.883.524 1.367 1.515.492.985.492 2.383m-6.516 0q0 1.032.273 1.789.273.758.844 1.172.57.414 1.469.414.89 0 1.46-.414.579-.414.852-1.172.273-.757.273-1.789 0-1.023-.273-1.766-.273-.75-.844-1.156-.57-.406-1.476-.406-1.336 0-1.961.883-.617.882-.617 2.445m15.828-4.266v8.563h-1.063l-.187-1.203h-.071a2.5 2.5 0 0 1-.687.75 3 3 0 0 1-.953.453 3.9 3.9 0 0 1-1.117.156q-1.016 0-1.703-.328a2.2 2.2 0 0 1-1.04-1.016q-.343-.687-.343-1.765v-5.61h1.312v5.516q0 1.07.485 1.602.484.523 1.476.523.954 0 1.516-.359.57-.36.82-1.055.25-.703.25-1.719v-4.508zm5.508 7.657q.32 0 .656-.055a3 3 0 0 0 .547-.133v1.008a2.7 2.7 0 0 1-.633.172 4.5 4.5 0 0 1-.781.07 3.15 3.15 0 0 1-1.235-.234 1.9 1.9 0 0 1-.89-.813q-.328-.57-.328-1.578v-5.078h-1.219v-.633l1.226-.508.516-1.859h.781v1.984h2.508v1.016h-2.508v5.039q0 .806.367 1.203.375.399.993.399m6.234-7.813q1.094 0 1.875.485a3.13 3.13 0 0 1 1.195 1.359q.414.867.414 2.031v.805h-5.914q.024 1.508.75 2.297.727.789 2.047.789.813 0 1.438-.149a8 8 0 0 0 1.297-.437v1.14a6.3 6.3 0 0 1-1.29.422 7.4 7.4 0 0 1-1.5.133q-1.233 0-2.156-.5a3.5 3.5 0 0 1-1.422-1.484q-.507-.977-.507-2.391 0-1.383.46-2.39.469-1.016 1.313-1.563.852-.547 2-.547m-.016 1.063q-1.038 0-1.656.679-.617.68-.734 1.899h4.531q-.008-.767-.242-1.344a1.9 1.9 0 0 0-.696-.906q-.468-.328-1.203-.328m13.672.109h-2.133v7.547h-1.296v-7.547h-1.516v-.625l1.516-.43v-.57q0-1.078.32-1.75.32-.68.93-1t1.484-.32q.493 0 .898.086.415.086.727.195l-.336 1.023a6 6 0 0 0-.602-.156 3 3 0 0 0-.671-.078q-.742 0-1.102.484-.352.477-.352 1.5v.625h2.133zm8.961 3.25q0 1.055-.273 1.883a3.9 3.9 0 0 1-.789 1.398 3.4 3.4 0 0 1-1.25.875q-.727.297-1.649.297a4.1 4.1 0 0 1-1.578-.297 3.55 3.55 0 0 1-1.234-.875 4 4 0 0 1-.805-1.398q-.28-.828-.281-1.883 0-1.406.476-2.391.477-.992 1.36-1.507.89-.524 2.117-.524 1.171 0 2.047.524.882.524 1.367 1.515.492.985.492 2.383m-6.515 0q0 1.032.273 1.789.273.758.844 1.172.57.414 1.468.414.891 0 1.461-.414.579-.414.852-1.172.273-.757.273-1.789 0-1.023-.273-1.766-.273-.75-.844-1.156-.57-.406-1.476-.406-1.337 0-1.961.883-.618.882-.617 2.445m15.828-4.266v8.563h-1.063l-.187-1.203h-.071a2.5 2.5 0 0 1-.687.75 3 3 0 0 1-.953.453 3.9 3.9 0 0 1-1.117.156q-1.016 0-1.704-.328a2.2 2.2 0 0 1-1.039-1.016q-.343-.687-.343-1.765v-5.61h1.312v5.516q0 1.07.484 1.602.485.523 1.477.523.953 0 1.516-.359.57-.36.82-1.055.25-.703.25-1.719v-4.508zm6.797-.156q1.523 0 2.304.75.781.743.781 2.391v5.578h-1.281v-5.492q0-1.071-.492-1.602-.484-.531-1.492-.531-1.422 0-2 .805-.578.804-.578 2.336v4.484h-1.297v-8.563h1.047l.195 1.235h.07a2.55 2.55 0 0 1 .696-.758 3 3 0 0 1 .945-.469 3.7 3.7 0 0 1 1.102-.164m8.804 8.875q-1.624 0-2.578-1.109-.945-1.11-.945-3.297 0-2.211.969-3.336.968-1.133 2.578-1.133.68 0 1.187.18.508.18.875.484.368.297.617.68h.094a12 12 0 0 1-.062-.664 10 10 0 0 1-.032-.688v-3.429h1.297v12.156h-1.047l-.195-1.219h-.055a3 3 0 0 1-.617.696 2.9 2.9 0 0 1-.883.5q-.507.179-1.203.179m.203-1.078q1.375 0 1.946-.781.57-.781.57-2.32v-.235q0-1.632-.547-2.508-.539-.875-1.969-.875-1.195 0-1.789.922-.593.915-.593 2.5 0 1.578.585 2.438.594.86 1.797.859"/><defs><clipPath id="a"><path fill="#fff" d="M0 0h164v160H0z"/></clipPath></defs></svg>